<svg width="76" height="67" viewBox="0 0 76 67" fill="none" xmlns="http://www.w3.org/2000/svg">
<path d="M75.5 25C75.5 38.8071 64.3071 50 50.5 50C49.2684 50 48.0774 49.9125 46.9279 49.7431C35.8823 48.1155 26.7054 38.1426 26 27C26.0346 24.8132 26.0874 27.1831 25.9554 25C25.7016 11.1952 36.6929 0 50.5 0C64.3071 0 75.5 11.1929 75.5 25Z" fill="#F8DD17"/>
<path d="M46.9279 49.7431C35.8823 48.1155 26.7054 38.1426 26 27C27 35.5 28.6363 44.5923 25 52C21.2882 59.5616 0 67 0 67H36C36 67 29.5 65 29.5 61C29.5 57.7678 30.8645 55.9262 33 53.5C36.0555 50.0284 42.7615 49.623 46.9279 49.7431Z" fill="#F8DD17"/>
</svg>
